<svg xmlns="http://www.w3.org/2000/svg" xmlns:xlink="http://www.w3.org/1999/xlink" width="500" zoomAndPan="magnify" viewBox="0 0 375 374.999991" height="500" preserveAspectRatio="xMidYMid meet" version="1.0"><defs><g/><clipPath id="75b73fd929"><path d="M 9.574219 128.367188 L 33.972656 128.367188 L 33.972656 152.765625 L 9.574219 152.765625 Z M 9.574219 128.367188 " clip-rule="nonzero"/></clipPath><clipPath id="3c2336298c"><path d="M 21.773438 128.367188 C 20.15625 128.367188 18.601562 128.675781 17.105469 129.292969 C 15.609375 129.914062 14.292969 130.796875 13.148438 131.9375 C 12.003906 133.082031 11.121094 134.402344 10.503906 135.898438 C 9.882812 137.390625 9.574219 138.945312 9.574219 140.566406 C 9.574219 142.183594 9.882812 143.738281 10.503906 145.234375 C 11.121094 146.726562 12.003906 148.046875 13.148438 149.191406 C 14.292969 150.335938 15.609375 151.214844 17.105469 151.835938 C 18.601562 152.453125 20.15625 152.765625 21.773438 152.765625 C 23.390625 152.765625 24.949219 152.453125 26.441406 151.835938 C 27.9375 151.214844 29.257812 150.335938 30.398438 149.191406 C 31.542969 148.046875 32.425781 146.726562 33.042969 145.234375 C 33.664062 143.738281 33.972656 142.183594 33.972656 140.566406 C 33.972656 138.945312 33.664062 137.390625 33.042969 135.898438 C 32.425781 134.402344 31.542969 133.082031 30.398438 131.9375 C 29.257812 130.796875 27.9375 129.914062 26.441406 129.292969 C 24.949219 128.675781 23.390625 128.367188 21.773438 128.367188 Z M 21.773438 128.367188 " clip-rule="nonzero"/></clipPath><clipPath id="cb44d379e4"><path d="M 95.890625 128.53125 L 120.289062 128.53125 L 120.289062 152.929688 L 95.890625 152.929688 Z M 95.890625 128.53125 " clip-rule="nonzero"/></clipPath><clipPath id="67e66ac8b3"><path d="M 108.089844 128.53125 C 106.472656 128.53125 104.914062 128.839844 103.421875 129.460938 C 101.925781 130.078125 100.605469 130.960938 99.460938 132.105469 C 98.320312 133.25 97.4375 134.566406 96.816406 136.0625 C 96.199219 137.558594 95.890625 139.113281 95.890625 140.730469 C 95.890625 142.347656 96.199219 143.90625 96.816406 145.398438 C 97.4375 146.894531 98.320312 148.214844 99.460938 149.355469 C 100.605469 150.5 101.925781 151.382812 103.421875 152 C 104.914062 152.621094 106.472656 152.929688 108.089844 152.929688 C 109.707031 152.929688 111.261719 152.621094 112.757812 152 C 114.25 151.382812 115.570312 150.5 116.714844 149.355469 C 117.859375 148.214844 118.738281 146.894531 119.359375 145.398438 C 119.976562 143.90625 120.289062 142.347656 120.289062 140.730469 C 120.289062 139.113281 119.976562 137.558594 119.359375 136.0625 C 118.738281 134.566406 117.859375 133.25 116.714844 132.105469 C 115.570312 130.960938 114.25 130.078125 112.757812 129.460938 C 111.261719 128.839844 109.707031 128.53125 108.089844 128.53125 Z M 108.089844 128.53125 " clip-rule="nonzero"/></clipPath><clipPath id="eafeafabcc"><path d="M 52.742188 128.367188 L 77.140625 128.367188 L 77.140625 152.765625 L 52.742188 152.765625 Z M 52.742188 128.367188 " clip-rule="nonzero"/></clipPath><clipPath id="3a30bfff85"><path d="M 64.941406 128.367188 C 63.324219 128.367188 61.765625 128.675781 60.273438 129.292969 C 58.777344 129.914062 57.457031 130.796875 56.3125 131.9375 C 55.171875 133.082031 54.289062 134.402344 53.667969 135.898438 C 53.050781 137.390625 52.742188 138.945312 52.742188 140.566406 C 52.742188 142.183594 53.050781 143.738281 53.667969 145.234375 C 54.289062 146.726562 55.171875 148.046875 56.3125 149.191406 C 57.457031 150.335938 58.777344 151.214844 60.273438 151.835938 C 61.765625 152.453125 63.324219 152.765625 64.941406 152.765625 C 66.558594 152.765625 68.113281 152.453125 69.609375 151.835938 C 71.101562 151.214844 72.421875 150.335938 73.566406 149.191406 C 74.710938 148.046875 75.589844 146.726562 76.210938 145.234375 C 76.828125 143.738281 77.140625 142.183594 77.140625 140.566406 C 77.140625 138.945312 76.828125 137.390625 76.210938 135.898438 C 75.589844 134.402344 74.710938 133.082031 73.566406 131.9375 C 72.421875 130.796875 71.101562 129.914062 69.609375 129.292969 C 68.113281 128.675781 66.558594 128.367188 64.941406 128.367188 Z M 64.941406 128.367188 " clip-rule="nonzero"/></clipPath></defs><g fill="#222222" fill-opacity="1"><g transform="translate(9.574683, 203.065075)"><g><path d="M 21.8125 -6.34375 L 7.65625 -6.34375 L 4.96875 0 L 0.046875 0 L 12.4375 -28.078125 L 17.28125 -28.078125 L 29.5625 0 L 24.5 0 Z M 20.015625 -10.546875 L 14.71875 -23.015625 L 9.421875 -10.546875 Z M 20.015625 -10.546875 "/></g></g></g><g fill="#222222" fill-opacity="1"><g transform="translate(56.811165, 203.065075)"><g><path d="M 28.03125 0 L 23.390625 0 L 8.421875 -20.140625 L 8.421875 0 L 3.6875 0 L 3.6875 -28.078125 L 8.34375 -28.078125 L 23.390625 -7.90625 L 23.390625 -28.078125 L 28.03125 -28.078125 Z M 28.03125 0 "/></g></g></g><g fill="#222222" fill-opacity="1"><g transform="translate(106.212826, 203.065075)"><g><path d="M 3.6875 -28.078125 L 15.203125 -28.078125 C 19.398438 -28.078125 22.867188 -26.753906 25.609375 -24.109375 C 28.347656 -21.460938 29.71875 -18.101562 29.71875 -14.03125 C 29.71875 -9.96875 28.335938 -6.613281 25.578125 -3.96875 C 22.828125 -1.320312 19.328125 0 15.078125 0 L 3.6875 0 Z M 8.421875 -23.828125 L 8.421875 -4.25 L 15.328125 -4.25 C 18.078125 -4.25 20.367188 -5.164062 22.203125 -7 C 24.035156 -8.832031 24.953125 -11.164062 24.953125 -14 C 24.953125 -16.832031 24.007812 -19.175781 22.125 -21.03125 C 20.238281 -22.894531 17.90625 -23.828125 15.125 -23.828125 Z M 8.421875 -23.828125 "/></g></g></g><g fill="#222222" fill-opacity="1"><g transform="translate(154.932866, 203.065075)"><g><path d="M 21.5 0 L 16.359375 -8.5 C 16.097656 -8.476562 15.671875 -8.46875 15.078125 -8.46875 L 8.421875 -8.46875 L 8.421875 0 L 3.6875 0 L 3.6875 -28.078125 L 15.078125 -28.078125 C 18.660156 -28.078125 21.441406 -27.238281 23.421875 -25.5625 C 25.398438 -23.894531 26.390625 -21.535156 26.390625 -18.484375 C 26.390625 -16.242188 25.890625 -14.347656 24.890625 -12.796875 C 23.890625 -11.242188 22.453125 -10.109375 20.578125 -9.390625 L 26.875 0 Z M 8.421875 -12.71875 L 15.078125 -12.71875 C 19.628906 -12.71875 21.90625 -14.601562 21.90625 -18.375 C 21.90625 -22.007812 19.628906 -23.828125 15.078125 -23.828125 L 8.421875 -23.828125 Z M 8.421875 -12.71875 "/></g></g></g><g fill="#222222" fill-opacity="1"><g transform="translate(201.567915, 203.065075)"><g><path d="M 23.75 -23.828125 L 8.421875 -23.828125 L 8.421875 -16.25 L 22.140625 -16.25 L 22.140625 -12 L 8.421875 -12 L 8.421875 -4.25 L 24.21875 -4.25 L 24.21875 0 L 3.6875 0 L 3.6875 -28.078125 L 23.75 -28.078125 Z M 23.75 -23.828125 "/></g></g></g><g fill="#222222" fill-opacity="1"><g transform="translate(245.516551, 203.065075)"><g><path d="M 21.8125 -6.34375 L 7.65625 -6.34375 L 4.96875 0 L 0.046875 0 L 12.4375 -28.078125 L 17.28125 -28.078125 L 29.5625 0 L 24.5 0 Z M 20.015625 -10.546875 L 14.71875 -23.015625 L 9.421875 -10.546875 Z M 20.015625 -10.546875 "/></g></g></g><g fill="#222222" fill-opacity="1"><g transform="translate(9.574683, 242.459247)"><g><path d="M -0.125 3.8125 C -0.738281 3.8125 -1.222656 3.722656 -1.578125 3.546875 L -1.578125 2.109375 C -1.109375 2.242188 -0.625 2.3125 -0.125 2.3125 C 0.53125 2.3125 1.03125 2.113281 1.375 1.71875 C 1.71875 1.320312 1.890625 0.75 1.890625 0 L 1.890625 -14.484375 L 3.5625 -14.484375 L 3.5625 -0.140625 C 3.5625 1.117188 3.242188 2.09375 2.609375 2.78125 C 1.984375 3.46875 1.070312 3.8125 -0.125 3.8125 Z M -0.125 3.8125 "/></g></g></g><g fill="#222222" fill-opacity="1"><g transform="translate(20.476237, 242.459247)"><g><path d="M 3.671875 -6.03125 L 3.671875 0 L 1.984375 0 L 1.984375 -14.484375 L 5.96875 -14.484375 C 7.738281 -14.484375 9.046875 -14.144531 9.890625 -13.46875 C 10.742188 -12.789062 11.171875 -11.765625 11.171875 -10.390625 C 11.171875 -8.472656 10.203125 -7.179688 8.265625 -6.515625 L 12.203125 0 L 10.203125 0 L 6.703125 -6.03125 Z M 3.671875 -7.46875 L 5.984375 -7.46875 C 7.171875 -7.46875 8.039062 -7.703125 8.59375 -8.171875 C 9.15625 -8.648438 9.4375 -9.363281 9.4375 -10.3125 C 9.4375 -11.269531 9.148438 -11.957031 8.578125 -12.375 C 8.015625 -12.800781 7.109375 -13.015625 5.859375 -13.015625 L 3.671875 -13.015625 Z M 3.671875 -7.46875 "/></g></g></g><g fill="#222222" fill-opacity="1"><g transform="translate(38.500496, 242.459247)"><g/></g></g><g fill="#222222" fill-opacity="1"><g transform="translate(49.253449, 242.459247)"><g><path d="M 3.671875 0 L 1.984375 0 L 1.984375 -14.484375 L 10.0625 -14.484375 L 10.0625 -13 L 3.671875 -13 L 3.671875 -7.6875 L 9.6875 -7.6875 L 9.6875 -6.1875 L 3.671875 -6.1875 Z M 3.671875 0 "/></g></g></g><g fill="#222222" fill-opacity="1"><g transform="translate(65.207273, 242.459247)"><g><path d="M 12.9375 -14.484375 L 12.9375 -5.109375 C 12.9375 -3.460938 12.4375 -2.164062 11.4375 -1.21875 C 10.4375 -0.269531 9.066406 0.203125 7.328125 0.203125 C 5.578125 0.203125 4.222656 -0.269531 3.265625 -1.21875 C 2.316406 -2.175781 1.84375 -3.488281 1.84375 -5.15625 L 1.84375 -14.484375 L 3.53125 -14.484375 L 3.53125 -5.03125 C 3.53125 -3.820312 3.859375 -2.894531 4.515625 -2.25 C 5.179688 -1.601562 6.15625 -1.28125 7.4375 -1.28125 C 8.65625 -1.28125 9.59375 -1.601562 10.25 -2.25 C 10.914062 -2.90625 11.25 -3.835938 11.25 -5.046875 L 11.25 -14.484375 Z M 12.9375 -14.484375 "/></g></g></g><g fill="#222222" fill-opacity="1"><g transform="translate(85.460481, 242.459247)"><g><path d="M 1.984375 0 L 1.984375 -14.484375 L 3.671875 -14.484375 L 3.671875 -1.53125 L 10.0625 -1.53125 L 10.0625 0 Z M 1.984375 0 "/></g></g></g><g fill="#222222" fill-opacity="1"><g transform="translate(101.473744, 242.459247)"><g><path d="M 1.984375 0 L 1.984375 -14.484375 L 3.671875 -14.484375 L 3.671875 -1.53125 L 10.0625 -1.53125 L 10.0625 0 Z M 1.984375 0 "/></g></g></g><g fill="#222222" fill-opacity="1"><g transform="translate(117.487006, 242.459247)"><g/></g></g><g fill="#222222" fill-opacity="1"><g transform="translate(128.239962, 242.459247)"><g><path d="M 10.171875 -3.859375 C 10.171875 -2.578125 9.707031 -1.578125 8.78125 -0.859375 C 7.851562 -0.148438 6.597656 0.203125 5.015625 0.203125 C 3.296875 0.203125 1.972656 -0.0195312 1.046875 -0.46875 L 1.046875 -2.09375 C 1.640625 -1.84375 2.285156 -1.644531 2.984375 -1.5 C 3.691406 -1.351562 4.390625 -1.28125 5.078125 -1.28125 C 6.203125 -1.28125 7.046875 -1.492188 7.609375 -1.921875 C 8.179688 -2.347656 8.46875 -2.941406 8.46875 -3.703125 C 8.46875 -4.203125 8.363281 -4.609375 8.15625 -4.921875 C 7.957031 -5.242188 7.617188 -5.539062 7.140625 -5.8125 C 6.671875 -6.082031 5.957031 -6.390625 5 -6.734375 C 3.644531 -7.222656 2.675781 -7.796875 2.09375 -8.453125 C 1.519531 -9.109375 1.234375 -9.972656 1.234375 -11.046875 C 1.234375 -12.160156 1.648438 -13.046875 2.484375 -13.703125 C 3.328125 -14.367188 4.441406 -14.703125 5.828125 -14.703125 C 7.265625 -14.703125 8.585938 -14.4375 9.796875 -13.90625 L 9.28125 -12.4375 C 8.082031 -12.9375 6.914062 -13.1875 5.78125 -13.1875 C 4.894531 -13.1875 4.195312 -12.992188 3.6875 -12.609375 C 3.1875 -12.234375 2.9375 -11.703125 2.9375 -11.015625 C 2.9375 -10.515625 3.03125 -10.101562 3.21875 -9.78125 C 3.40625 -9.46875 3.71875 -9.175781 4.15625 -8.90625 C 4.59375 -8.632812 5.265625 -8.335938 6.171875 -8.015625 C 7.691406 -7.472656 8.738281 -6.890625 9.3125 -6.265625 C 9.882812 -5.648438 10.171875 -4.847656 10.171875 -3.859375 Z M 10.171875 -3.859375 "/></g></g></g><g fill="#222222" fill-opacity="1"><g transform="translate(144.857516, 242.459247)"><g><path d="M 6.453125 0 L 4.765625 0 L 4.765625 -13 L 0.171875 -13 L 0.171875 -14.484375 L 11.046875 -14.484375 L 11.046875 -13 L 6.453125 -13 Z M 6.453125 0 "/></g></g></g><g fill="#222222" fill-opacity="1"><g transform="translate(161.564234, 242.459247)"><g><path d="M 11.09375 0 L 9.296875 -4.609375 L 3.484375 -4.609375 L 1.703125 0 L 0 0 L 5.734375 -14.546875 L 7.140625 -14.546875 L 12.84375 0 Z M 8.765625 -6.125 L 7.09375 -10.609375 C 6.875 -11.179688 6.644531 -11.878906 6.40625 -12.703125 C 6.257812 -12.066406 6.050781 -11.367188 5.78125 -10.609375 L 4.078125 -6.125 Z M 8.765625 -6.125 "/></g></g></g><g fill="#222222" fill-opacity="1"><g transform="translate(179.88569, 242.459247)"><g><path d="M 8.203125 -13.1875 C 6.609375 -13.1875 5.347656 -12.65625 4.421875 -11.59375 C 3.503906 -10.539062 3.046875 -9.09375 3.046875 -7.25 C 3.046875 -5.351562 3.488281 -3.882812 4.375 -2.84375 C 5.257812 -1.8125 6.523438 -1.296875 8.171875 -1.296875 C 9.179688 -1.296875 10.335938 -1.476562 11.640625 -1.84375 L 11.640625 -0.359375 C 10.628906 0.015625 9.390625 0.203125 7.921875 0.203125 C 5.785156 0.203125 4.132812 -0.441406 2.96875 -1.734375 C 1.8125 -3.035156 1.234375 -4.878906 1.234375 -7.265625 C 1.234375 -8.753906 1.507812 -10.0625 2.0625 -11.1875 C 2.625 -12.3125 3.429688 -13.175781 4.484375 -13.78125 C 5.546875 -14.394531 6.789062 -14.703125 8.21875 -14.703125 C 9.738281 -14.703125 11.066406 -14.421875 12.203125 -13.859375 L 11.484375 -12.421875 C 10.390625 -12.929688 9.296875 -13.1875 8.203125 -13.1875 Z M 8.203125 -13.1875 "/></g></g></g><g fill="#222222" fill-opacity="1"><g transform="translate(198.167522, 242.459247)"><g><path d="M 12.453125 0 L 10.46875 0 L 5.1875 -7.03125 L 3.671875 -5.671875 L 3.671875 0 L 1.984375 0 L 1.984375 -14.484375 L 3.671875 -14.484375 L 3.671875 -7.296875 L 10.25 -14.484375 L 12.234375 -14.484375 L 6.40625 -8.203125 Z M 12.453125 0 "/></g></g></g><g fill="#222222" fill-opacity="1"><g transform="translate(216.102635, 242.459247)"><g/></g></g><g fill="#222222" fill-opacity="1"><g transform="translate(226.855591, 242.459247)"><g><path d="M 14.640625 0 L 12.96875 0 L 10.046875 -9.703125 C 9.910156 -10.128906 9.753906 -10.671875 9.578125 -11.328125 C 9.410156 -11.984375 9.320312 -12.375 9.3125 -12.5 C 9.164062 -11.632812 8.9375 -10.679688 8.625 -9.640625 L 5.78125 0 L 4.125 0 L 0.265625 -14.484375 L 2.046875 -14.484375 L 4.34375 -5.546875 C 4.65625 -4.285156 4.882812 -3.144531 5.03125 -2.125 C 5.207031 -3.332031 5.472656 -4.515625 5.828125 -5.671875 L 8.421875 -14.484375 L 10.203125 -14.484375 L 12.9375 -5.59375 C 13.25 -4.570312 13.515625 -3.414062 13.734375 -2.125 C 13.859375 -3.0625 14.097656 -4.207031 14.453125 -5.5625 L 16.734375 -14.484375 L 18.515625 -14.484375 Z M 14.640625 0 "/></g></g></g><g fill="#222222" fill-opacity="1"><g transform="translate(251.120884, 242.459247)"><g><path d="M 10.0625 0 L 1.984375 0 L 1.984375 -14.484375 L 10.0625 -14.484375 L 10.0625 -13 L 3.671875 -13 L 3.671875 -8.328125 L 9.6875 -8.328125 L 9.6875 -6.84375 L 3.671875 -6.84375 L 3.671875 -1.5 L 10.0625 -1.5 Z M 10.0625 0 "/></g></g></g><g fill="#222222" fill-opacity="1"><g transform="translate(267.887041, 242.459247)"><g><path d="M 1.984375 -14.484375 L 6.078125 -14.484375 C 8.003906 -14.484375 9.394531 -14.195312 10.25 -13.625 C 11.113281 -13.050781 11.546875 -12.144531 11.546875 -10.90625 C 11.546875 -10.039062 11.304688 -9.328125 10.828125 -8.765625 C 10.347656 -8.210938 9.648438 -7.851562 8.734375 -7.6875 L 8.734375 -7.59375 C 10.929688 -7.21875 12.03125 -6.0625 12.03125 -4.125 C 12.03125 -2.832031 11.59375 -1.820312 10.71875 -1.09375 C 9.84375 -0.363281 8.617188 0 7.046875 0 L 1.984375 0 Z M 3.671875 -8.28125 L 6.453125 -8.28125 C 7.640625 -8.28125 8.492188 -8.46875 9.015625 -8.84375 C 9.535156 -9.21875 9.796875 -9.847656 9.796875 -10.734375 C 9.796875 -11.546875 9.503906 -12.128906 8.921875 -12.484375 C 8.347656 -12.847656 7.425781 -13.03125 6.15625 -13.03125 L 3.671875 -13.03125 Z M 3.671875 -6.859375 L 3.671875 -1.4375 L 6.703125 -1.4375 C 7.867188 -1.4375 8.75 -1.660156 9.34375 -2.109375 C 9.9375 -2.566406 10.234375 -3.273438 10.234375 -4.234375 C 10.234375 -5.140625 9.929688 -5.800781 9.328125 -6.21875 C 8.722656 -6.644531 7.800781 -6.859375 6.5625 -6.859375 Z M 3.671875 -6.859375 "/></g></g></g><g fill="#222222" fill-opacity="1"><g transform="translate(286.515603, 242.459247)"><g/></g></g><g fill="#222222" fill-opacity="1"><g transform="translate(297.268559, 242.459247)"><g><path d="M 13.5625 -7.390625 C 13.5625 -4.992188 12.910156 -3.160156 11.609375 -1.890625 C 10.304688 -0.628906 8.4375 0 6 0 L 1.984375 0 L 1.984375 -14.484375 L 6.4375 -14.484375 C 8.6875 -14.484375 10.4375 -13.859375 11.6875 -12.609375 C 12.9375 -11.367188 13.5625 -9.628906 13.5625 -7.390625 Z M 11.78125 -7.328125 C 11.78125 -9.210938 11.300781 -10.632812 10.34375 -11.59375 C 9.394531 -12.550781 7.988281 -13.03125 6.125 -13.03125 L 3.671875 -13.03125 L 3.671875 -1.453125 L 5.734375 -1.453125 C 7.734375 -1.453125 9.238281 -1.945312 10.25 -2.9375 C 11.269531 -3.925781 11.78125 -5.390625 11.78125 -7.328125 Z M 11.78125 -7.328125 "/></g></g></g><g fill="#222222" fill-opacity="1"><g transform="translate(317.541574, 242.459247)"><g><path d="M 10.0625 0 L 1.984375 0 L 1.984375 -14.484375 L 10.0625 -14.484375 L 10.0625 -13 L 3.671875 -13 L 3.671875 -8.328125 L 9.6875 -8.328125 L 9.6875 -6.84375 L 3.671875 -6.84375 L 3.671875 -1.5 L 10.0625 -1.5 Z M 10.0625 0 "/></g></g></g><g fill="#222222" fill-opacity="1"><g transform="translate(334.307731, 242.459247)"><g><path d="M 10.265625 -14.484375 L 12.078125 -14.484375 L 6.859375 0 L 5.1875 0 L 0 -14.484375 L 1.78125 -14.484375 L 5.109375 -5.109375 C 5.492188 -4.035156 5.800781 -2.988281 6.03125 -1.96875 C 6.257812 -3.039062 6.566406 -4.109375 6.953125 -5.171875 Z M 10.265625 -14.484375 "/></g></g></g><g clip-path="url(#75b73fd929)"><g clip-path="url(#3c2336298c)"><path fill="#ff5c5c" d="M 9.574219 128.367188 L 33.972656 128.367188 L 33.972656 152.765625 L 9.574219 152.765625 Z M 9.574219 128.367188 " fill-opacity="1" fill-rule="nonzero"/></g></g><g clip-path="url(#cb44d379e4)"><g clip-path="url(#67e66ac8b3)"><path fill="#7ed957" d="M 95.890625 128.53125 L 120.289062 128.53125 L 120.289062 152.929688 L 95.890625 152.929688 Z M 95.890625 128.53125 " fill-opacity="1" fill-rule="nonzero"/></g></g><g clip-path="url(#eafeafabcc)"><g clip-path="url(#3a30bfff85)"><path fill="#ffbd4a" d="M 52.742188 128.367188 L 77.140625 128.367188 L 77.140625 152.765625 L 52.742188 152.765625 Z M 52.742188 128.367188 " fill-opacity="1" fill-rule="nonzero"/></g></g></svg>